solid Mesh
  facet normal -0.965926 -0.258819 7.92405e-17
    outer loop
      vertex 13 0 0
      vertex 13 3.9801e-15 13
      vertex 11.2583 6.5 0
    endloop
  endfacet
  facet normal -0.965926 -0.258819 0
    outer loop
      vertex 13 3.9801e-15 13
      vertex 11.2583 6.5 13
      vertex 11.2583 6.5 0
    endloop
  endfacet
  facet normal -0.707107 -0.707107 0
    outer loop
      vertex 11.2583 6.5 0
      vertex 11.2583 6.5 13
      vertex 6.5 11.2583 0
    endloop
  endfacet
  facet normal -0.707107 -0.707107 0
    outer loop
      vertex 11.2583 6.5 13
      vertex 6.5 11.2583 13
      vertex 6.5 11.2583 0
    endloop
  endfacet
  facet normal -0.258819 -0.965926 0
    outer loop
      vertex 6.5 11.2583 0
      vertex 6.5 11.2583 13
      vertex 3.6826e-15 13 0
    endloop
  endfacet
  facet normal -0.258819 -0.965926 -7.43616e-17
    outer loop
      vertex 6.5 11.2583 13
      vertex 0 13 13
      vertex 3.6826e-15 13 0
    endloop
  endfacet
  facet normal 0.258819 -0.965926 7.33175e-17
    outer loop
      vertex 3.6826e-15 13 0
      vertex 0 13 13
      vertex -6.5 11.2583 0
    endloop
  endfacet
  facet normal 0.258819 -0.965926 0
    outer loop
      vertex 0 13 13
      vertex -6.5 11.2583 13
      vertex -6.5 11.2583 0
    endloop
  endfacet
  facet normal 0.707107 -0.707107 0
    outer loop
      vertex -6.5 11.2583 0
      vertex -6.5 11.2583 13
      vertex -11.2583 6.5 0
    endloop
  endfacet
  facet normal 0.707107 -0.707107 0
    outer loop
      vertex -6.5 11.2583 13
      vertex -11.2583 6.5 13
      vertex -11.2583 6.5 0
    endloop
  endfacet
  facet normal 0.965926 -0.258819 0
    outer loop
      vertex -11.2583 6.5 0
      vertex -11.2583 6.5 13
      vertex -13 7.3652e-15 0
    endloop
  endfacet
  facet normal 0.965926 -0.258819 -1.98298e-16
    outer loop
      vertex -11.2583 6.5 13
      vertex -13 -2.38806e-15 13
      vertex -13 7.3652e-15 0
    endloop
  endfacet
  facet normal 0.965926 0.258819 1.94179e-16
    outer loop
      vertex -13 7.3652e-15 0
      vertex -13 -2.38806e-15 13
      vertex -11.2583 -6.5 0
    endloop
  endfacet
  facet normal 0.965926 0.258819 0
    outer loop
      vertex -13 -2.38806e-15 13
      vertex -11.2583 -6.5 13
      vertex -11.2583 -6.5 0
    endloop
  endfacet
  facet normal 0.707107 0.707107 0
    outer loop
      vertex -11.2583 -6.5 0
      vertex -11.2583 -6.5 13
      vertex -6.5 -11.2583 0
    endloop
  endfacet
  facet normal 0.707107 0.707107 0
    outer loop
      vertex -11.2583 -6.5 13
      vertex -6.5 -11.2583 13
      vertex -6.5 -11.2583 0
    endloop
  endfacet
  facet normal 0.258819 0.965926 0
    outer loop
      vertex -6.5 -11.2583 0
      vertex -6.5 -11.2583 13
      vertex -1.39344e-14 -13 0
    endloop
  endfacet
  facet normal 0.258819 0.965926 -4.21382e-16
    outer loop
      vertex -6.5 -11.2583 13
      vertex 7.3652e-15 -13 13
      vertex -1.39344e-14 -13 0
    endloop
  endfacet
  facet normal -0.258819 0.965926 4.24057e-16
    outer loop
      vertex -1.39344e-14 -13 0
      vertex 7.3652e-15 -13 13
      vertex 6.5 -11.2583 0
    endloop
  endfacet
  facet normal -0.258819 0.965926 0
    outer loop
      vertex 7.3652e-15 -13 13
      vertex 6.5 -11.2583 13
      vertex 6.5 -11.2583 0
    endloop
  endfacet
  facet normal -0.707107 0.707107 0
    outer loop
      vertex 6.5 -11.2583 0
      vertex 6.5 -11.2583 13
      vertex 11.2583 -6.5 0
    endloop
  endfacet
  facet normal -0.707107 0.707107 0
    outer loop
      vertex 6.5 -11.2583 13
      vertex 11.2583 -6.5 13
      vertex 11.2583 -6.5 0
    endloop
  endfacet
  facet normal -0.965926 0.258819 0
    outer loop
      vertex 11.2583 -6.5 0
      vertex 11.2583 -6.5 13
      vertex 13 0 0
    endloop
  endfacet
  facet normal -0.965926 0.258819 -7.43616e-17
    outer loop
      vertex 11.2583 -6.5 13
      vertex 13 3.9801e-15 13
      vertex 13 0 0
    endloop
  endfacet
  facet normal -0.189015 -0.189015 -0.963611
    outer loop
      vertex 0 7.9602e-16 26
      vertex 3.25 5.62917 24.2583
      vertex 5.62917 3.25 24.2583
    endloop
  endfacet
  facet normal -0.0691841 -0.258199 -0.963611
    outer loop
      vertex 0 6.5 24.2583
      vertex 3.25 5.62917 24.2583
      vertex 0 7.9602e-16 26
    endloop
  endfacet
  facet normal -0.189015 0.189015 -0.963611
    outer loop
      vertex 0 7.9602e-16 26
      vertex 5.62917 -3.25 24.2583
      vertex 3.25 -5.62917 24.2583
    endloop
  endfacet
  facet normal -0.258199 0.0691841 -0.963611
    outer loop
      vertex 6.5 1.80411e-15 24.2583
      vertex 5.62917 -3.25 24.2583
      vertex 0 7.9602e-16 26
    endloop
  endfacet
  facet normal -0.258199 -0.0691841 -0.963611
    outer loop
      vertex 5.62917 3.25 24.2583
      vertex 6.5 1.80411e-15 24.2583
      vertex 0 7.9602e-16 26
    endloop
  endfacet
  facet normal 0.189015 0.189015 -0.963611
    outer loop
      vertex 0 7.9602e-16 26
      vertex -3.25 -5.62917 24.2583
      vertex -5.62917 -3.25 24.2583
    endloop
  endfacet
  facet normal 0.0691841 0.258199 -0.963611
    outer loop
      vertex 3.60822e-15 -6.5 24.2583
      vertex -3.25 -5.62917 24.2583
      vertex 0 7.9602e-16 26
    endloop
  endfacet
  facet normal -0.0691841 0.258199 -0.963611
    outer loop
      vertex 3.25 -5.62917 24.2583
      vertex 3.60822e-15 -6.5 24.2583
      vertex 0 7.9602e-16 26
    endloop
  endfacet
  facet normal 0.189015 -0.189015 -0.963611
    outer loop
      vertex 0 7.9602e-16 26
      vertex -5.62917 3.25 24.2583
      vertex -3.25 5.62917 24.2583
    endloop
  endfacet
  facet normal 0.258199 -0.0691841 -0.963611
    outer loop
      vertex -6.5 -5.41234e-15 24.2583
      vertex -5.62917 3.25 24.2583
      vertex 0 7.9602e-16 26
    endloop
  endfacet
  facet normal 0.258199 0.0691841 -0.963611
    outer loop
      vertex -5.62917 -3.25 24.2583
      vertex -6.5 -5.41234e-15 24.2583
      vertex 0 7.9602e-16 26
    endloop
  endfacet
  facet normal 0.0691841 -0.258199 -0.963611
    outer loop
      vertex -3.25 5.62917 24.2583
      vertex 0 6.5 24.2583
      vertex 0 7.9602e-16 26
    endloop
  endfacet
  facet normal -0.50859 -0.50859 -0.694747
    outer loop
      vertex 3.25 5.62917 24.2583
      vertex 5.62917 9.75 19.5
      vertex 5.62917 3.25 24.2583
    endloop
  endfacet
  facet normal -0.50859 -0.50859 -0.694747
    outer loop
      vertex 5.62917 9.75 19.5
      vertex 9.75 5.62917 19.5
      vertex 5.62917 3.25 24.2583
    endloop
  endfacet
  facet normal -0.694747 -0.186157 -0.694746
    outer loop
      vertex 5.62917 3.25 24.2583
      vertex 9.75 5.62917 19.5
      vertex 6.5 1.80411e-15 24.2583
    endloop
  endfacet
  facet normal -0.694747 -0.186157 -0.694747
    outer loop
      vertex 9.75 5.62917 19.5
      vertex 11.2583 3.12481e-15 19.5
      vertex 6.5 1.80411e-15 24.2583
    endloop
  endfacet
  facet normal -0.694747 0.186157 -0.694747
    outer loop
      vertex 6.5 1.80411e-15 24.2583
      vertex 11.2583 3.12481e-15 19.5
      vertex 5.62917 -3.25 24.2583
    endloop
  endfacet
  facet normal -0.694747 0.186157 -0.694747
    outer loop
      vertex 11.2583 3.12481e-15 19.5
      vertex 9.75 -5.62917 19.5
      vertex 5.62917 -3.25 24.2583
    endloop
  endfacet
  facet normal -0.50859 0.50859 -0.694747
    outer loop
      vertex 5.62917 -3.25 24.2583
      vertex 9.75 -5.62917 19.5
      vertex 3.25 -5.62917 24.2583
    endloop
  endfacet
  facet normal -0.50859 0.50859 -0.694747
    outer loop
      vertex 9.75 -5.62917 19.5
      vertex 5.62917 -9.75 19.5
      vertex 3.25 -5.62917 24.2583
    endloop
  endfacet
  facet normal -0.186157 0.694747 -0.694746
    outer loop
      vertex 3.25 -5.62917 24.2583
      vertex 5.62917 -9.75 19.5
      vertex 3.60822e-15 -6.5 24.2583
    endloop
  endfacet
  facet normal -0.186157 0.694747 -0.694747
    outer loop
      vertex 5.62917 -9.75 19.5
      vertex 6.24963e-15 -11.2583 19.5
      vertex 3.60822e-15 -6.5 24.2583
    endloop
  endfacet
  facet normal 0.186157 0.694747 -0.694747
    outer loop
      vertex 3.60822e-15 -6.5 24.2583
      vertex 6.24963e-15 -11.2583 19.5
      vertex -3.25 -5.62917 24.2583
    endloop
  endfacet
  facet normal 0.186157 0.694747 -0.694747
    outer loop
      vertex 6.24963e-15 -11.2583 19.5
      vertex -5.62917 -9.75 19.5
      vertex -3.25 -5.62917 24.2583
    endloop
  endfacet
  facet normal 0.50859 0.50859 -0.694747
    outer loop
      vertex -3.25 -5.62917 24.2583
      vertex -5.62917 -9.75 19.5
      vertex -5.62917 -3.25 24.2583
    endloop
  endfacet
  facet normal 0.50859 0.50859 -0.694747
    outer loop
      vertex -5.62917 -9.75 19.5
      vertex -9.75 -5.62917 19.5
      vertex -5.62917 -3.25 24.2583
    endloop
  endfacet
  facet normal 0.694747 0.186157 -0.694746
    outer loop
      vertex -5.62917 -3.25 24.2583
      vertex -9.75 -5.62917 19.5
      vertex -6.5 -5.41234e-15 24.2583
    endloop
  endfacet
  facet normal 0.694747 0.186157 -0.694747
    outer loop
      vertex -9.75 -5.62917 19.5
      vertex -11.2583 -9.37444e-15 19.5
      vertex -6.5 -5.41234e-15 24.2583
    endloop
  endfacet
  facet normal 0.694747 -0.186157 -0.694747
    outer loop
      vertex -6.5 -5.41234e-15 24.2583
      vertex -11.2583 -9.37444e-15 19.5
      vertex -5.62917 3.25 24.2583
    endloop
  endfacet
  facet normal 0.694747 -0.186157 -0.694747
    outer loop
      vertex -11.2583 -9.37444e-15 19.5
      vertex -9.75 5.62917 19.5
      vertex -5.62917 3.25 24.2583
    endloop
  endfacet
  facet normal 0.50859 -0.50859 -0.694747
    outer loop
      vertex -5.62917 3.25 24.2583
      vertex -9.75 5.62917 19.5
      vertex -3.25 5.62917 24.2583
    endloop
  endfacet
  facet normal 0.50859 -0.50859 -0.694747
    outer loop
      vertex -9.75 5.62917 19.5
      vertex -5.62917 9.75 19.5
      vertex -3.25 5.62917 24.2583
    endloop
  endfacet
  facet normal 0.186157 -0.694747 -0.694746
    outer loop
      vertex -3.25 5.62917 24.2583
      vertex -5.62917 9.75 19.5
      vertex 0 6.5 24.2583
    endloop
  endfacet
  facet normal 0.186157 -0.694747 -0.694747
    outer loop
      vertex -5.62917 9.75 19.5
      vertex 0 11.2583 19.5
      vertex 0 6.5 24.2583
    endloop
  endfacet
  facet normal -0.186157 -0.694747 -0.694747
    outer loop
      vertex 0 6.5 24.2583
      vertex 0 11.2583 19.5
      vertex 3.25 5.62917 24.2583
    endloop
  endfacet
  facet normal -0.186157 -0.694747 -0.694747
    outer loop
      vertex 0 11.2583 19.5
      vertex 5.62917 9.75 19.5
      vertex 3.25 5.62917 24.2583
    endloop
  endfacet
  facet normal -0.68455 -0.68455 -0.250563
    outer loop
      vertex 5.62917 9.75 19.5
      vertex 6.5 11.2583 13
      vertex 9.75 5.62917 19.5
    endloop
  endfacet
  facet normal -0.68455 -0.68455 -0.250563
    outer loop
      vertex 6.5 11.2583 13
      vertex 11.2583 6.5 13
      vertex 9.75 5.62917 19.5
    endloop
  endfacet
  facet normal -0.935113 -0.250563 -0.250563
    outer loop
      vertex 9.75 5.62917 19.5
      vertex 11.2583 6.5 13
      vertex 11.2583 3.12481e-15 19.5
    endloop
  endfacet
  facet normal -0.935113 -0.250563 -0.250563
    outer loop
      vertex 11.2583 6.5 13
      vertex 13 3.9801e-15 13
      vertex 11.2583 3.12481e-15 19.5
    endloop
  endfacet
  facet normal -0.935113 0.250563 -0.250563
    outer loop
      vertex 11.2583 3.12481e-15 19.5
      vertex 13 3.9801e-15 13
      vertex 9.75 -5.62917 19.5
    endloop
  endfacet
  facet normal -0.935113 0.250563 -0.250563
    outer loop
      vertex 13 3.9801e-15 13
      vertex 11.2583 -6.5 13
      vertex 9.75 -5.62917 19.5
    endloop
  endfacet
  facet normal -0.68455 0.68455 -0.250563
    outer loop
      vertex 9.75 -5.62917 19.5
      vertex 11.2583 -6.5 13
      vertex 5.62917 -9.75 19.5
    endloop
  endfacet
  facet normal -0.68455 0.68455 -0.250563
    outer loop
      vertex 11.2583 -6.5 13
      vertex 6.5 -11.2583 13
      vertex 5.62917 -9.75 19.5
    endloop
  endfacet
  facet normal -0.250563 0.935113 -0.250563
    outer loop
      vertex 5.62917 -9.75 19.5
      vertex 6.5 -11.2583 13
      vertex 6.24963e-15 -11.2583 19.5
    endloop
  endfacet
  facet normal -0.250563 0.935113 -0.250563
    outer loop
      vertex 6.5 -11.2583 13
      vertex 7.3652e-15 -13 13
      vertex 6.24963e-15 -11.2583 19.5
    endloop
  endfacet
  facet normal 0.250563 0.935113 -0.250563
    outer loop
      vertex 6.24963e-15 -11.2583 19.5
      vertex 7.3652e-15 -13 13
      vertex -5.62917 -9.75 19.5
    endloop
  endfacet
  facet normal 0.250563 0.935113 -0.250563
    outer loop
      vertex 7.3652e-15 -13 13
      vertex -6.5 -11.2583 13
      vertex -5.62917 -9.75 19.5
    endloop
  endfacet
  facet normal 0.68455 0.68455 -0.250563
    outer loop
      vertex -5.62917 -9.75 19.5
      vertex -6.5 -11.2583 13
      vertex -9.75 -5.62917 19.5
    endloop
  endfacet
  facet normal 0.68455 0.68455 -0.250563
    outer loop
      vertex -6.5 -11.2583 13
      vertex -11.2583 -6.5 13
      vertex -9.75 -5.62917 19.5
    endloop
  endfacet
  facet normal 0.935113 0.250563 -0.250563
    outer loop
      vertex -9.75 -5.62917 19.5
      vertex -11.2583 -6.5 13
      vertex -11.2583 -9.37444e-15 19.5
    endloop
  endfacet
  facet normal 0.935113 0.250563 -0.250563
    outer loop
      vertex -11.2583 -6.5 13
      vertex -13 -2.38806e-15 13
      vertex -11.2583 -9.37444e-15 19.5
    endloop
  endfacet
  facet normal 0.935113 -0.250563 -0.250563
    outer loop
      vertex -11.2583 -9.37444e-15 19.5
      vertex -13 -2.38806e-15 13
      vertex -9.75 5.62917 19.5
    endloop
  endfacet
  facet normal 0.935113 -0.250563 -0.250563
    outer loop
      vertex -13 -2.38806e-15 13
      vertex -11.2583 6.5 13
      vertex -9.75 5.62917 19.5
    endloop
  endfacet
  facet normal 0.68455 -0.68455 -0.250563
    outer loop
      vertex -9.75 5.62917 19.5
      vertex -11.2583 6.5 13
      vertex -5.62917 9.75 19.5
    endloop
  endfacet
  facet normal 0.68455 -0.68455 -0.250563
    outer loop
      vertex -11.2583 6.5 13
      vertex -6.5 11.2583 13
      vertex -5.62917 9.75 19.5
    endloop
  endfacet
  facet normal 0.250563 -0.935113 -0.250563
    outer loop
      vertex -5.62917 9.75 19.5
      vertex -6.5 11.2583 13
      vertex 0 11.2583 19.5
    endloop
  endfacet
  facet normal 0.250563 -0.935113 -0.250563
    outer loop
      vertex -6.5 11.2583 13
      vertex 0 13 13
      vertex 0 11.2583 19.5
    endloop
  endfacet
  facet normal -0.250563 -0.935113 -0.250563
    outer loop
      vertex 0 11.2583 19.5
      vertex 0 13 13
      vertex 5.62917 9.75 19.5
    endloop
  endfacet
  facet normal -0.250563 -0.935113 -0.250563
    outer loop
      vertex 0 13 13
      vertex 6.5 11.2583 13
      vertex 5.62917 9.75 19.5
    endloop
  endfacet
endsolid Mesh
